<?xml version="1.0" encoding="UTF-8"?> <svg xmlns="http://www.w3.org/2000/svg" width="116" height="50" viewBox="0 0 116 50" fill="none"><g clip-path="url(#clip0_74_31)"><path fill-rule="evenodd" clip-rule="evenodd" d="M23.4336 32.7136C21.3165 30.8009 19.455 28.6557 17.3927 26.6714C14.7464 24.133 13.8704 23.0962 8.88798 23.0247C9.19823 22.7565 10.348 22.1666 10.8043 21.8985C12.6841 20.7544 14.5274 19.2706 15.8596 17.5545C20.0207 12.1559 18.9987 3.27135 11.9541 1.05469C10.129 0.482652 7.53744 0.357513 4.98237 0.357513H0V0.482639C1.22278 0.482639 2.2083 1.44798 2.2083 2.64569V32.3203C2.2083 33.5181 1.22278 34.4834 0 34.4834V34.6085H8.12146V34.4834C7.17243 34.4834 6.36941 33.8935 6.05916 33.0711C5.9679 32.8388 5.91314 32.5885 5.91314 32.3203V24.3118C5.93139 24.2939 5.9314 24.2939 5.94965 24.2939C9.28948 22.971 11.6438 25.581 13.0126 27.0289C14.5639 28.6557 16.5167 30.64 18.2505 32.3203C21.5903 35.5023 25.4776 38.434 30.4053 39.3457C34.9314 40.168 40.4795 40.168 45.4436 38.8452C38.3625 40.4719 27.8502 36.7 23.4336 32.7136ZM5.9314 23.6503V2.41329C5.9314 1.59098 6.62491 0.911674 7.46443 0.911674H7.53744C8.30396 0.893798 9.28949 1.1262 9.8005 1.30497C10.6765 1.62674 11.4065 2.18089 11.9906 2.89594C14.6186 6.0958 14.4909 12.138 13.3411 15.4809C12.6476 17.5009 11.5708 19.0919 10.4393 20.379C9.837 21.0225 7.13593 23.4358 5.9314 23.6503Z" fill="white"></path><path fill-rule="evenodd" clip-rule="evenodd" d="M91.8181 32.6242L91.4714 31.7841L78.7325 0.661414L78.4588 0L76.7067 4.48695L70.9578 19.217L69.5891 22.7208C69.6803 22.7923 69.8263 22.9174 69.9906 23.0247C70.1913 23.1677 70.4468 23.3464 70.7388 23.5073C72.5456 24.5263 73.1114 24.6157 73.1114 24.6157C77.2725 26.4927 81.2876 27.172 86.051 27.315C87.2007 30.1216 87.9673 32.0164 87.9673 32.0164C88.022 32.2131 88.0585 32.374 88.0585 32.5706C88.0585 33.6074 87.2008 34.4297 86.1605 34.4297V34.5728H94.6287V34.4476C93.3694 34.4476 92.2926 33.6968 91.8181 32.6242ZM77.528 24.0436C75.995 23.2392 72.4726 20.951 71.3411 19.5924L76.9805 5.13049C76.9805 5.13049 82.5834 18.788 85.7772 26.6357C83.5872 26.7072 79.1888 24.9374 77.528 24.0436Z" fill="white"></path><path fill-rule="evenodd" clip-rule="evenodd" d="M36.8112 0.339661C28.0145 0.339661 20.8785 7.84769 20.8785 17.1076C20.8785 26.3675 28.0145 33.8756 36.8112 33.8756C45.6079 33.8756 52.7439 26.3675 52.7439 17.1076C52.7621 7.84769 45.6262 0.339661 36.8112 0.339661ZM36.8112 0.822312C43.6916 0.822312 49.2763 7.95495 49.2763 17.1076C49.2763 26.2603 43.6916 33.3929 36.8112 33.3929C29.9308 33.3929 24.3461 26.2603 24.3461 17.1076C24.3644 7.95495 29.9308 0.822312 36.8112 0.822312Z" fill="white"></path><path fill-rule="evenodd" clip-rule="evenodd" d="M73.0749 0.339648V0.446902C71.8703 0.446902 70.8483 1.16194 70.3921 2.18089C70.3556 2.2524 70.3373 2.32392 70.3008 2.39542L70.0271 3.0926L63.6394 19.4315V26.3318V32.2667C63.6394 33.4644 64.6249 34.4297 65.8477 34.4297V34.5549H57.7262V34.4297C58.949 34.4297 59.9345 33.4644 59.9345 32.2667V26.439V19.4315L53.2366 3.0926L52.8534 2.16302C52.4153 1.14407 51.3751 0.42903 50.1705 0.42903V0.321776H57.8905V0.42903C57.0875 0.42903 56.4305 1.07258 56.4305 1.85913C56.4305 2.00214 56.4487 2.14516 56.5034 2.28817C56.5217 2.3418 56.5399 2.37754 56.5582 2.41329L56.832 3.07471L62.0881 15.892L63.3291 18.9131L63.6576 18.0551L69.516 3.05684L69.7715 2.39542L69.8263 2.2524C69.8628 2.10939 69.8993 1.98425 69.8993 1.82337C69.8993 1.03681 69.2423 0.393264 68.4393 0.393264C68.4393 0.393264 68.4393 0.393264 68.421 0.393264V0.286011H73.0749V0.339648Z" fill="white"></path><path fill-rule="evenodd" clip-rule="evenodd" d="M116 26.6536L115.89 27.029L114.065 33.7505L114.029 33.8756C114.011 33.965 113.956 34.0365 113.919 34.108C113.792 34.3046 113.591 34.4655 113.335 34.5549C113.281 34.5728 113.208 34.5906 113.153 34.5906C113.135 34.5906 113.135 34.5906 113.116 34.5906H96.691V34.4655C97.1472 34.4655 97.5487 34.3404 97.9138 34.108C98.4978 33.7147 98.8993 33.0533 98.8993 32.3025V2.62781C98.8993 1.4301 97.9138 0.464786 96.691 0.464786V0.339661H104.812V0.464786C103.59 0.464786 102.604 1.4301 102.604 2.62781V33.4823C102.604 33.822 102.878 34.108 103.243 34.108C104.703 34.108 108.171 34.108 108.207 34.108C110.945 34.0365 113.281 32.3919 114.284 30.0501C114.284 30.0322 115.434 26.8502 115.434 26.8502L115.544 26.5284L116 26.6536Z" fill="white"></path><path fill-rule="evenodd" clip-rule="evenodd" d="M22.9956 46.0315V47.5867H25.2769V48.1409H22.9956V49.9464H22.3386V45.4773H25.5689V46.0315H22.9956Z" fill="white"></path><path fill-rule="evenodd" clip-rule="evenodd" d="M32.7596 45.4773H33.4166V49.3922H35.8987V49.9464H32.7596V45.4773Z" fill="white"></path><path fill-rule="evenodd" clip-rule="evenodd" d="M44.8962 50C44.4399 50 44.0202 49.8928 43.6552 49.6961C43.2901 49.4995 42.9981 49.2313 42.7791 48.8738C42.5601 48.5163 42.4689 48.1409 42.4689 47.694C42.4689 47.265 42.5784 46.8717 42.7791 46.5141C42.9981 46.1566 43.2901 45.8885 43.6552 45.6918C44.0202 45.4952 44.4399 45.3879 44.8962 45.3879C45.3524 45.3879 45.7722 45.4952 46.1372 45.6918C46.5022 45.8885 46.7942 46.1566 47.0132 46.5141C47.214 46.8538 47.3235 47.2471 47.3235 47.694C47.3235 48.123 47.214 48.5163 47.0132 48.8738C46.8125 49.2135 46.5205 49.4995 46.1372 49.6961C45.7722 49.9106 45.3524 50 44.8962 50ZM44.8962 49.428C45.2247 49.428 45.5349 49.3565 45.8087 49.1956C46.0825 49.0526 46.2832 48.8381 46.4475 48.5699C46.5935 48.3018 46.6847 48.0158 46.6847 47.694C46.6847 47.3722 46.6117 47.0683 46.4475 46.818C46.3015 46.5499 46.0825 46.3533 45.8087 46.1924C45.5349 46.0494 45.2429 45.96 44.8962 45.96C44.5677 45.96 44.2574 46.0315 43.9837 46.1924C43.7099 46.3354 43.4909 46.5499 43.3449 46.818C43.1989 47.0862 43.1076 47.3722 43.1076 47.694C43.1076 48.0158 43.1806 48.3196 43.3449 48.5699C43.4909 48.8381 43.7099 49.0347 43.9837 49.1956C44.2574 49.3565 44.5677 49.428 44.8962 49.428Z" fill="white"></path><path fill-rule="evenodd" clip-rule="evenodd" d="M60.9201 45.4773L59.3871 49.9464H58.6935L57.4525 46.3711L56.1932 49.9464H55.4997L53.9667 45.4773H54.6419L55.883 49.1062L57.1605 45.4773H57.7628L59.022 49.1241L60.2996 45.4773H60.9201Z" fill="white"></path><path fill-rule="evenodd" clip-rule="evenodd" d="M71.3046 49.3922V49.9464H67.983V45.4773H71.2134V46.0315H68.64V47.4079H70.9214V47.9442H68.64V49.3922H71.3046Z" fill="white"></path><path fill-rule="evenodd" clip-rule="evenodd" d="M81.6891 49.9464L80.7036 48.5699C80.5759 48.5699 80.4846 48.5878 80.4116 48.5878H79.2801V49.9464H78.623V45.4595H80.4116C80.9956 45.4595 81.4701 45.6025 81.8169 45.8706C82.1636 46.1566 82.3279 46.532 82.3279 47.0147C82.3279 47.3543 82.2366 47.6582 82.0724 47.8906C81.8899 48.1409 81.6526 48.3197 81.3241 48.4269L82.4009 49.9285H81.6891V49.9464ZM80.3933 48.0515C80.8131 48.0515 81.1234 47.9621 81.3424 47.7834C81.5614 47.6046 81.6709 47.3543 81.6709 47.0326C81.6709 46.7108 81.5614 46.4605 81.3424 46.2818C81.1234 46.103 80.8131 46.0136 80.3933 46.0136H79.2801V48.0336H80.3933V48.0515Z" fill="white"></path><path fill-rule="evenodd" clip-rule="evenodd" d="M90.9969 50C90.6501 50 90.3216 49.9464 89.9931 49.8391C89.6646 49.7319 89.4273 49.6067 89.2448 49.428L89.4821 48.9274C89.6646 49.0883 89.8836 49.2135 90.1573 49.3029C90.4311 49.3922 90.7049 49.4459 90.9969 49.4459C91.3801 49.4459 91.6539 49.3744 91.8546 49.2492C92.0371 49.1241 92.1284 48.9632 92.1284 48.7487C92.1284 48.5878 92.0736 48.4627 91.9824 48.3733C91.8729 48.2839 91.7451 48.2124 91.5991 48.1588C91.4531 48.1051 91.2341 48.0515 90.9604 47.98C90.6136 47.8906 90.3398 47.8191 90.1208 47.7297C89.9018 47.6403 89.7376 47.5152 89.5733 47.3543C89.4273 47.1934 89.3543 46.961 89.3543 46.675C89.3543 46.4426 89.4273 46.2281 89.5551 46.0315C89.6828 45.8348 89.8836 45.6918 90.1391 45.5667C90.3946 45.4594 90.7231 45.3879 91.1064 45.3879C91.3801 45.3879 91.6356 45.4237 91.9094 45.4952C92.1649 45.5667 92.4022 45.6561 92.5847 45.7812L92.3657 46.2996C92.1832 46.1745 91.9641 46.0851 91.7451 46.0315C91.5261 45.9779 91.3071 45.9421 91.1064 45.9421C90.7414 45.9421 90.4494 46.0136 90.2669 46.1387C90.0844 46.2639 89.9931 46.4426 89.9931 46.6572C89.9931 46.818 90.0478 46.9432 90.1573 47.0326C90.2668 47.1219 90.3946 47.2113 90.5406 47.265C90.6866 47.3186 90.9056 47.3722 91.1794 47.4258C91.5261 47.5152 91.7999 47.5867 92.0007 47.6761C92.2014 47.7655 92.3839 47.8728 92.5482 48.0515C92.6942 48.2124 92.7672 48.4448 92.7672 48.7308C92.7672 48.9632 92.6942 49.1777 92.5664 49.3743C92.4387 49.571 92.2379 49.714 91.9641 49.8391C91.7086 49.9464 91.3801 50 90.9969 50Z" fill="white"></path></g><defs><clipPath id="clip0_74_31"><rect width="116" height="50" fill="white"></rect></clipPath></defs></svg> 